# AST/ASF file generated using VICON BodyLanguage
# -----------------------------------------------
:version 1.10
:name VICON
:units
  mass 1.0
  length 0.45
  angle deg
:documentation
   .ast/.asf automatically generated from VICON data using
   VICON BodyBuilder and BodyLanguage model FoxedUp or BRILLIANT.MOD
:root
   order TX TY TZ RX RY RZ
   axis XYZ
   position 0 0 0  
   orientation 0 0 0 
:bonedata
  begin
     id 1 
     name lhipjoint
     direction 0.578396 -0.714046 0.394458 
     length 2.21935 
     axis 0 0 0  XYZ
  end
  begin
     id 2 
     name lfemur
     direction 0.34202 -0.939693 0  
     length 6.39105  
     axis 0 0 20  XYZ
    dof rx ry rz
    limits (-160.0 20.0)
           (-70.0 70.0)
           (-60.0 70.0)
  end
  begin
     id 3 
     name ltibia
     direction 0.34202 -0.939693 0   
     length 6.99037   
     axis 0 0 20   XYZ
    dof rx
    limits (-10.0 170.0)
  end
  begin
     id 4 
     name lfoot
     direction 0.0582372 -0.160005 0.985397   
     length 2.06111   
     axis -90 7.62852e-016 20   XYZ
    dof rx rz
    limits (-45.0 90.0)
           (-70.0 20.0)
  end
  begin
     id 5 
     name ltoes
     direction 1.53556e-011 -4.21875e-011 1   
     length 1.04074   
     axis -90 7.62852e-016 20   XYZ
    dof rx
    limits (-90.0 20.0)
  end
  begin
     id 6 
     name rhipjoint
     direction -0.558179 -0.726269 0.40121   
     length 2.182  
     axis 0 0 0  XYZ 
  end
  begin
     id 7 
     name rfemur
     direction -0.34202 -0.939693 0   
     length 6.51172   
     axis 0 0 -20   XYZ
    dof rx ry rz
    limits (-160.0 20.0)
           (-70.0 70.0)
           (-70.0 60.0)
  end
  begin
     id 8 
     name rtibia
     direction -0.34202 -0.939693 0   
     length 7.02607   
     axis 0 0 -20   XYZ
    dof rx
    limits (-10.0 170.0)
 end
 begin
     id 9 
     name rfoot
     direction -0.0788856 -0.216737 0.973038   
     length 1.96734  
     axis -90 -7.62852e-016 -20   XYZ
    dof rx rz
    limits (-45.0 90.0)
           (-20.0 70.0)
  end
  begin
     id 10 
     name rtoes
     direction -1.53567e-011 -4.21783e-011 1   
     length 0.990825   
     axis -90 -7.62852e-016 -20   XYZ
    dof rx
    limits (-90.0 20.0)
  end
  begin
     id 11 
     name lowerback
     direction 0.00668177 0.999323 -0.0361741   
     length 1.7655   
     axis 0 0 0   XYZ
    dof rx ry rz
    limits (-20.0 45.0)
           (-30.0 30.0)
           (-30.0 30.0)
  end
  begin
     id 12 
     name upperback
     direction -0.00222086 0.99851 0.0545167   
     length 1.74912   
     axis 0 0 0   XYZ
    dof rx ry rz
    limits (-20.0 45.0)
           (-30.0 30.0)
           (-30.0 30.0)
  end
  begin
     id 13 
     name thorax
     direction -0.00733971 0.997496 0.0703443   
     length 1.75715   
     axis 0 0 0   XYZ
    dof rx ry rz
    limits (-20.0 45.0)
           (-30.0 30.0)
           (-30.0 30.0)
  end
  begin
     id 14 
     name lowerneck
     direction 0.0279797 0.994795 0.0979765   
     length 1.46939   
     axis 0 0 0   XYZ
    dof rx ry rz
    limits (-20.0 45.0)
           (-30.0 30.0)
           (-30.0 30.0)
  end
  begin
     id 15 
     name upperneck
     direction 0.00339187 0.976776 -0.214238   
     length 1.48018   
     axis 0 0 0   XYZ
    dof rx ry rz
    limits (-20.0 45.0)
           (-30.0 30.0)
           (-30.0 30.0)
  end
  begin
     id 16
     name head
     direction -0.00263506 0.996603 -0.0823096  
     length 1.4976  
     axis 0 0 0   XYZ
    dof rx ry rz
    limits (-20.0 45.0)
           (-30.0 30.0)
           (-30.0 30.0)
  end
  begin
     id 17 
     name lclavicle
     direction 0.894044 0.44508 -0.0508781  
     length 3.03024  
     axis 0 0 0   XYZ
    dof ry rz
    limits (-20.0 10.0)
           (0.0 20.0)
  end
  begin
     id 18 
     name lhumerus
     direction 1 -4.48961e-011 -2.39475e-018   
     length 4.4661   
     axis 180 -30 -90   XYZ
    dof rx ry rz
    limits (-60.0 90.0)
           (-90.0 90.0)
           (-90.0 90.0)
  end
  begin
     id 19
     name lradius
     direction 1 -4.48961e-011 9.29328e-028   
     length 3.41414   
     axis 180 -30 -90   XYZ
    dof rx
    limits (-10.0 170.0)
  end
  begin
     id 20
     name lwrist
     direction 1 -4.48985e-011 1.53461e-026   
     length 1.70707   
     axis -1.09697e-014 90 90   XYZ
    dof ry
    limits (-180.0 0.0)
 end
  begin
     id 21 
     name lhand
     direction 1 -4.48966e-011 3.06923e-026   
     length 0.328298   
     axis -1.95843e-014 90 90   XYZ
    dof rx rz
    limits (-90.0 90.0)
           (-45.0 45.0)
  end
  begin
     id 22 
     name lfingers
     direction 1 -4.48893e-011 6.13845e-026   
     length 0.264682   
     axis -3.91686e-014 90 90   XYZ
    dof rx
    limits (0.0 90.0)
  end
  begin
     id 23
     name lthumb
     direction 0.707107 -6.34876e-011 0.707107   
     length 0.380032   
     axis -90 45 2.85299e-015   XYZ
    dof rx rz
    limits (-45.0 45.0)
           (-45.0 45.0)
  end
  begin
     id 24 
     name rclavicle
     direction -0.936955 0.347862 -0.0332887   
     length 3.26927  
     axis 0 0 0   XYZ 
    dof ry rz
    limits (-10.0 20.0)
           (-20.0 0.0)
  end
  begin
     id 25 
     name rhumerus
     direction -1 -4.4896e-011 1.78637e-018  
     length 4.40431   
     axis 180 30 90   XYZ
    dof rx ry rz
    limits (-90.0 60.0)
           (-90.0 90.0)
           (-90.0 90.0)
  end
  begin
     id 26 
     name rradius
     direction -1 -4.48955e-011 9.34036e-027   
     length 3.04688   
     axis 180 30 90   XYZ
    dof rx
    limits (-10.0 170.0)
  end
  begin
     id 27 
     name rwrist
     direction -1 -4.49011e-011 1.53461e-026   
     length 1.52344   
     axis -1.09697e-014 -90 -90   XYZ
    dof ry
    limits (-180.0 0.0)
  end
  begin
     id 28
     name rhand
     direction -1 -4.48834e-011 3.06923e-026   
     length 0.500489   
     axis -1.95843e-014 -90 -90   XYZ
    dof rx rz
    limits (-90.0 90.0)
           (-45.0 45.0)
  end
  begin
     id 29
     name rfingers
     direction -1 -4.48967e-011 6.13845e-026   
     length 0.403507   
     axis -3.91686e-014 -90 -90   XYZ
    dof rx
    limits (0.0 90.0)
  end
  begin
     id 30
     name rthumb
     direction -0.707107 -6.34826e-011 0.707107   
     length 0.579358   
     axis -90 -45 -2.85299e-015   XYZ
    dof rx rz
    limits (-45.0 45.0)
           (-45.0 45.0)
  end
:hierarchy
  begin
    root lhipjoint rhipjoint lowerback
    lhipjoint lfemur
    lfemur ltibia
    ltibia lfoot
    lfoot ltoes
    rhipjoint rfemur
    rfemur rtibia
    rtibia rfoot
    rfoot rtoes
    lowerback upperback
    upperback thorax
    thorax lowerneck lclavicle rclavicle
    lowerneck upperneck
    upperneck head
    lclavicle lhumerus
    lhumerus lradius
    lradius lwrist
    lwrist lhand lthumb
    lhand lfingers
    rclavicle rhumerus
    rhumerus rradius
    rradius rwrist
    rwrist rhand rthumb
    rhand rfingers
  end

#!OML:ASF H:\IndianDance\Patient Classification 1\Patient 1\Session 1\dancer.ASF
:FULLY-SPECIFIED
:DEGREES
901
root -24.6471 15.7611 0.842401 -165.974 18.9211 -176.769
lowerback 3.20131 7.24217 3.12422
upperback -12.6538 11.0138 -9.1065
thorax -13.3495 4.98269 -13.6412
lowerneck -17.8608 11.6905 11.2814
upperneck 25.2105 12.3413 0.155759
head 11.9879 6.36991 0.163556
rclavicle 1.82882e-014 -1.24042e-013
rhumerus 29.244 -19.7699 19.4532
rradius 63.5757
rwrist 12.0159
rhand -50.136 66.3638
rfingers 7.12502
rthumb -22.7196 37.6814
lclavicle 1.82882e-014 -1.24042e-013
lhumerus -10.4604 -28.8947 -18.6646
lradius 41.1602
lwrist -14.1431
lhand -58.0057 -49.6126
lfingers 7.12502
lthumb -30.2513 -382.071
rfemur -8.54296 -2.02832 39.0245
rtibia 21.0013
rfoot -3.22105 -2.27166
rtoes 10.7784
lfemur 113.149 172.32 199.472
ltibia 137.539
lfoot 22.5065 -33.7465
ltoes 3.3555
902
root -24.5408 15.689 0.835296 -165.883 18.9295 -176.664
lowerback 3.54126 7.23985 3.36345
upperback -12.5726 11.0125 -9.25247
thorax -13.396 4.9329 -14.0054
lowerneck -17.9606 11.8903 11.5796
upperneck 25.5212 12.3721 0.537858
head 12.1318 6.45004 0.282017
rclavicle -8.3092e-014 -4.13472e-014
rhumerus 28.6469 -19.5533 19.5479
rradius 64.2946
rwrist 12.1959
rhand -50.1612 66.2056
rfingers 7.12502
rthumb -22.7438 37.5262
lclavicle -8.3092e-014 -4.13472e-014
lhumerus -12.6658 -31.8191 -14.6413
lradius 42.1877
lwrist -12.6062
lhand -56.6801 -46.8761
lfingers 7.12502
lthumb -28.986 -379.11
rfemur -8.66578 -1.73064 39.4718
rtibia 21.6755
rfoot -3.97524 -1.8686
rtoes 10.7632
lfemur 112.061 175.244 196.281
ltibia 134.946
lfoot 21.6812 -31.8521
ltoes 5.79571
903
root -24.4348 15.6107 0.829425 -165.811 18.9505 -176.591
lowerback 3.88082 7.23986 3.57291
upperback -12.4738 11.0099 -9.39077
thorax -13.4277 4.88703 -14.3418
lowerneck -17.9895 12.0574 11.81
upperneck 25.7202 12.397 0.892924
head 12.2144 6.52083 0.392601
rclavicle 6.99722e-014 -1.59028e-013
rhumerus 28.1207 -19.321 19.6473
rradius 64.9724
rwrist 12.3854
rhand -50.2288 65.8889
rfingers 7.12502
rthumb -22.8087 37.2174
lclavicle 6.99722e-014 -1.59028e-013
lhumerus -14.8631 -34.3736 -10.2811
lradius 43.2435
lwrist -11.0633
lhand -55.4376 -43.9659
lfingers 7.12502
lthumb -27.7986 -376.002
rfemur -8.89607 -1.48977 39.9
rtibia 22.5642
rfoot -4.85047 -1.50259
rtoes 11.1512
lfemur 111.131 177.77 193.28
ltibia 132.085
lfoot 20.5501 -30.243
ltoes 7.97354
904
root -24.3291 15.5258 0.82446 -165.747 18.9657 -176.538
lowerback 4.1929 7.23168 3.76181
upperback -12.351 10.9912 -9.51093
thorax -13.4242 4.83981 -14.6334
lowerneck -17.959 12.1997 11.9609
upperneck 25.8209 12.4278 1.23487
head 12.2411 6.58741 0.504198
rclavicle 1.13108e-013 5.725e-014
rhumerus 27.6944 -19.1071 19.7209
rradius 65.6055
rwrist 12.5483
rhand -50.3586 65.4171
rfingers 7.12502
rthumb -22.9332 36.761
lclavicle 1.13108e-013 5.725e-014
lhumerus -17.0479 -36.5423 -5.6217
lradius 44.3275
lwrist -9.43201
lhand -54.3563 -41.0015
lfingers 7.12502
lthumb -26.7644 -372.875
rfemur -9.2112 -1.33597 40.3306
rtibia 23.6114
rfoot -5.83372 -1.18536
rtoes 11.7153
lfemur 110.309 179.841 190.454
ltibia 129.015
lfoot 19.1709 -28.9156
ltoes 9.61933
905
root -24.2229 15.4344 0.820011 -165.682 18.9607 -176.491
lowerback 4.48112 7.21483 3.94562
upperback -12.2162 10.9597 -9.61785
thorax -13.398 4.79041 -14.8983
lowerneck -17.887 12.3131 12.0281
upperneck 25.8538 12.4452 1.60089
head 12.2229 6.64427 0.628702
rclavicle 9.00495e-014 -2.54444e-014
rhumerus 27.3471 -18.9026 19.754
rradius 66.1966
rwrist 12.6607
rhand -50.5447 64.8534
rfingers 7.12502
rthumb -23.1119 36.2196
lclavicle 9.00495e-014 -2.54444e-014
lhumerus -19.1335 -38.3655 -0.766117
lradius 45.4594
lwrist -7.53421
lhand -53.3651 -38.138
lfingers 7.12502
lthumb -25.8155 -369.87
rfemur -9.57821 -1.26644 40.7857
rtibia 24.7488
rfoot -6.90927 -0.939561
rtoes 12.4592
lfemur 109.571 181.446 187.773
ltibia 125.783
lfoot 17.6636 -27.7582
ltoes 10.665
906
root -24.1156 15.3372 0.815794 -165.61 18.9269 -176.443
lowerback 4.73176 7.18209 4.12526
upperback -12.0699 10.9058 -9.709
thorax -13.3446 4.73506 -15.1299
lowerneck -17.7957 12.4057 12.0355
upperneck 25.8477 12.4491 1.98975
head 12.1779 6.69259 0.764217
rclavicle 1.43125e-014 -9.85972e-014
rhumerus 27.0893 -18.7279 19.7156
rradius 66.7482
rwrist 12.7191
rhand -50.7554 64.2861
rfingers 7.12502
rthumb -23.3139 35.6778
lclavicle 1.43125e-014 -9.85972e-014
lhumerus -21.0907 -39.8764 4.21001
lradius 46.6855
lwrist -5.23581
lhand -52.4587 -35.5284
lfingers 7.12502
lthumb -24.9472 -367.137
rfemur -9.96101 -1.26853 41.2766
rtibia 25.9045
rfoot -8.0508 -0.781112
rtoes 13.3131
lfemur 108.912 182.615 185.192
ltibia 122.428
lfoot 16.0967 -26.6979
ltoes 10.9691
907
root -24.0064 15.2351 0.811352 -165.531 18.8563 -176.387
lowerback 4.9448 7.13256 4.3117
upperback -11.9156 10.8304 -9.79282
thorax -13.2648 4.67296 -15.3452
lowerneck -17.7082 12.4766 12.0091
upperneck 25.8261 12.4252 2.40134
head 12.122 6.72777 0.906681
rclavicle 1.3895e-013 -3.81667e-014
rhumerus 26.911 -18.5808 19.593
rradius 67.247
rwrist 12.7412
rhand -50.8842 63.968
rfingers 7.12502
rthumb -23.4375 35.3754
lclavicle 1.3895e-013 -3.81667e-014
lhumerus -22.8636 -41.1554 9.21222
lradius 48.0036
lwrist -2.65207
lhand -51.7721 -33.1985
lfingers 7.12502
lthumb -24.289 -364.717
rfemur -10.3233 -1.32875 41.8119
rtibia 27.0126
rfoot -9.2291 -0.714743
rtoes 14.2397
lfemur 108.334 183.404 182.667
ltibia 118.976
lfoot 14.5504 -25.6423
ltoes 10.5325
908
root -23.8945 15.1297 0.806584 -165.438 18.7489 -176.336
lowerback 5.11623 7.05866 4.48762
upperback -11.7621 10.7233 -9.87326
thorax -13.1726 4.60011 -15.5404
lowerneck -17.6348 12.5294 11.9607
upperneck 25.8064 12.368 2.84761
head 12.0642 6.7492 1.05914
rclavicle -3.24019e-014 -9.54166e-015
rhumerus 26.8296 -18.4629 19.3727
rradius 67.6786
rwrist 12.7306
rhand -50.9093 63.9003
rfingers 7.12502
rthumb -23.4616 35.3108
lclavicle -3.24019e-014 -9.54166e-015
lhumerus -24.3762 -42.1637 14.1341
lradius 49.5281
lwrist 0.598187
lhand -50.787 -31.0844
lfingers 7.12502
lthumb -23.3442 -362.48
rfemur -10.6452 -1.43482 42.3828
rtibia 28.0181
rfoot -10.4082 -0.737727
rtoes 15.1059
lfemur 107.839 183.863 180.15
ltibia 115.44
lfoot 13.0877 -24.5315
ltoes 9.45472
909
root -23.7791 15.0231 0.80095 -165.337 18.6113 -176.301
lowerback 5.24639 6.95277 4.64456
upperback -11.6157 10.575 -9.96282
thorax -13.0784 4.51169 -15.7272
lowerneck -17.5782 12.573 11.9462
upperneck 25.7988 12.275 3.3107
head 12.0157 6.75818 1.20799
rclavicle -1.32192e-013 -3.18055e-015
rhumerus 26.8518 -18.3765 19.0152
rradius 68.037
rwrist 12.7222
rhand -50.8204 64.0784
rfingers 7.12502
rthumb -23.3763 35.478
lclavicle -1.32192e-013 -3.18055e-015
lhumerus -25.6141 -42.9963 18.9023
lradius 51.1762
lwrist 4.10597
lhand -49.7476 -29.0266
lfingers 7.12502
lthumb -22.3468 -360.299
rfemur -10.9034 -1.57673 42.9736
rtibia 28.8791
rfoot -11.557 -0.833863
rtoes 15.8923
lfemur 107.446 184.04 177.597
ltibia 111.822
lfoot 11.7846 -23.391
ltoes 7.99283
910
root -23.6598 14.9172 0.79385 -165.237 18.457 -176.288
lowerback 5.34193 6.8166 4.77274
upperback -11.4771 10.3866 -10.0628
thorax -12.9886 4.40835 -15.9037
lowerneck -17.5355 12.6066 11.9585
upperneck 25.8002 12.1465 3.79387
head 11.9743 6.75434 1.35531
rclavicle 5.53615e-014 5.40694e-014
rhumerus 26.9835 -18.3182 18.5282
rradius 68.3175
rwrist 12.7143
rhand -50.6225 64.4653
rfingers 7.12502
rthumb -23.1865 35.8409
lclavicle 5.53615e-014 5.40694e-014
lhumerus -26.528 -43.653 23.4612
lradius 52.9215
lwrist 7.80024
lhand -48.5286 -26.8237
lfingers 7.12502
lthumb -21.1762 -357.96
rfemur -11.0729 -1.74707 43.5703
rtibia 29.5669
rfoot -12.6471 -0.984141
rtoes 16.569
lfemur 107.18 183.971 174.978
ltibia 108.123
lfoot 10.6321 -22.2384
ltoes 6.23614
911
root -23.5356 14.8137 0.785255 -165.135 18.296 -176.313
lowerback 5.39933 6.65583 4.84439
upperback -11.3499 10.163 -10.1722
thorax -12.9086 4.29508 -16.0529
lowerneck -17.5031 12.6246 11.9774
upperneck 25.804 11.9829 4.29517
head 11.9353 6.73582 1.50284
rclavicle -5.1684e-014 -3.18055e-015
rhumerus 27.2197 -18.2831 17.9395
rradius 68.5236
rwrist 12.6986
rhand -50.304 65.0756
rfingers 7.12502
rthumb -22.8808 36.4131
lclavicle -5.1684e-014 -3.18055e-015
lhumerus -27.0602 -44.1395 27.781
lradius 54.6968
lwrist 11.5395
lhand -47.0955 -24.3318
lfingers 7.12502
lthumb -19.7991 -355.32
rfemur -11.1554 -1.93947 44.1564
rtibia 30.0682
rfoot -13.6541 -1.16848
rtoes 17.1505
lfemur 107.04 183.669 172.27
ltibia 104.343
lfoot 9.68534 -21.1584
ltoes 4.57837
